<?xml version="1.0" encoding="UTF-8" standalone="no"?>
<!-- Created with Inkscape (http://www.inkscape.org/) -->

<svg
   xmlns:dc="http://purl.org/dc/elements/1.1/"
   xmlns:cc="http://creativecommons.org/ns#"
   xmlns:rdf="http://www.w3.org/1999/02/22-rdf-syntax-ns#"
   xmlns:svg="http://www.w3.org/2000/svg"
   xmlns="http://www.w3.org/2000/svg"
   xmlns:sodipodi="http://sodipodi.sourceforge.net/DTD/sodipodi-0.dtd"
   xmlns:inkscape="http://www.inkscape.org/namespaces/inkscape"
   width="48"
   height="48"
   viewBox="0 0 48 48"
   id="svg2"
   version="1.1"
   inkscape:version="0.91 r13725"
   sodipodi:docname="icon.svg">
  <defs
     id="defs4" />
  <sodipodi:namedview
     id="base"
     pagecolor="#ffffff"
     bordercolor="#666666"
     borderopacity="1.0"
     inkscape:pageopacity="0.0"
     inkscape:pageshadow="2"
     inkscape:zoom="5.6"
     inkscape:cx="21.659896"
     inkscape:cy="11.324193"
     inkscape:document-units="px"
     inkscape:current-layer="layer1"
     showgrid="false"
     units="px"
     inkscape:window-width="1276"
     inkscape:window-height="952"
     inkscape:window-x="0"
     inkscape:window-y="0"
     inkscape:window-maximized="1" />
  <metadata
     id="metadata7">
    <rdf:RDF>
      <cc:Work
         rdf:about="">
        <dc:format>image/svg+xml</dc:format>
        <dc:type
           rdf:resource="http://purl.org/dc/dcmitype/StillImage" />
        <dc:title></dc:title>
      </cc:Work>
    </rdf:RDF>
  </metadata>
  <g
     inkscape:label="Calque 1"
     inkscape:groupmode="layer"
     id="layer1"
     transform="translate(0,-1004.3622)">
    <path
       inkscape:connector-curvature="0"
       id="path3378"
       style="font-style:normal;font-variant:normal;font-weight:normal;font-stretch:normal;font-size:15.59866428px;line-height:125%;font-family:'Vertigo Upright 2 BRK';-inkscape-font-specification:'Vertigo Upright 2 BRK, Normal';text-align:start;letter-spacing:0.77993321px;word-spacing:155.79946899px;writing-mode:lr-tb;text-anchor:start;fill:#05376a;fill-opacity:1;stroke:none;stroke-width:1px;stroke-linecap:butt;stroke-linejoin:miter;stroke-opacity:1"
       d="m 16.23212,1019.8017 -3.27572,0 0,-8.2517 -3.2913179,3.2913 -3.2757195,-3.2913 0,8.2517 -3.2913182,0 0,-13.1341 3.0417396,0 3.5252981,3.5253 3.5252979,-3.5253 3.04174,0 0,13.1341 z" />
    <path
       inkscape:connector-curvature="0"
       id="path3380"
       style="font-style:normal;font-variant:normal;font-weight:normal;font-stretch:normal;font-size:15.59866428px;line-height:125%;font-family:'Vertigo Upright 2 BRK';-inkscape-font-specification:'Vertigo Upright 2 BRK, Normal';text-align:start;letter-spacing:0.77993321px;word-spacing:155.79946899px;writing-mode:lr-tb;text-anchor:start;fill:#000000;fill-opacity:1;stroke:none;stroke-width:1px;stroke-linecap:butt;stroke-linejoin:miter;stroke-opacity:1"
       d="m 31.08741,1009.9433 -1.63786,0 q -1.497471,0.156 -2.277405,0.8268 -1.013913,0.8735 -1.013913,2.4646 0,2.0434 1.591064,2.8545 0.311973,0.156 0.733137,0.2652 0.421164,0.1092 0.967117,0.1716 l 1.63786,0 0,3.2757 -1.63786,0 q -1.27909,0 -2.542582,-0.4836 -1.40388,-0.5303 -2.386595,-1.5442 -0.93592,0.9827 -2.3398,1.4975 -1.357084,0.5303 -2.589378,0.5303 l -1.63786,0 0,-3.2757 1.63786,0 q 1.497471,-0.156 2.277405,-0.8267 1.013913,-0.8736 1.013913,-2.4646 0,-2.0279 -1.591064,-2.8546 -0.311973,-0.156 -0.733137,-0.2652 -0.421164,-0.1092 -0.967117,-0.1716 l -1.63786,0 0,-3.2757 1.63786,0 q 1.247893,0 2.604977,0.4992 1.341485,0.4991 2.324201,1.5287 0.951518,-0.9828 2.339799,-1.4975 1.357084,-0.5304 2.589378,-0.5304 l 1.63786,0 0,3.2757 z" />
    <path
       inkscape:connector-curvature="0"
       id="path3382"
       style="font-style:normal;font-variant:normal;font-weight:normal;font-stretch:normal;font-size:15.59866428px;line-height:125%;font-family:'Vertigo Upright 2 BRK';-inkscape-font-specification:'Vertigo Upright 2 BRK, Normal';text-align:start;letter-spacing:0.77993321px;word-spacing:155.79946899px;writing-mode:lr-tb;text-anchor:start;fill:#05376a;fill-opacity:1;stroke:none;stroke-width:1px;stroke-linecap:butt;stroke-linejoin:miter;stroke-opacity:1"
       d="m 45.942701,1019.8017 -3.27572,0 0,-8.2517 -3.291318,3.2913 -3.27572,-3.2913 0,8.2517 -3.291318,0 0,-13.1341 3.04174,0 3.525298,3.5253 3.525298,-3.5253 3.04174,0 0,13.1341 z" />
    <path
       inkscape:connector-curvature="0"
       id="path3385"
       style="font-style:normal;font-variant:normal;font-weight:normal;font-stretch:normal;font-size:20.25623322px;line-height:125%;font-family:'Vertigo Upright 2 BRK';-inkscape-font-specification:'Vertigo Upright 2 BRK, Normal';text-align:start;letter-spacing:1.01281166px;word-spacing:202.31929016px;writing-mode:lr-tb;text-anchor:start;fill:#000000;fill-opacity:1;stroke:none;stroke-width:1px;stroke-linecap:butt;stroke-linejoin:miter;stroke-opacity:1"
       d="m 5.9112105,1028.3716 q 0,1.4916 1.0339003,2.5255 1.0508496,1.0508 2.525429,1.0508 1.1016972,0 2.0508512,-0.661 0.915256,-0.6441 1.305088,-1.7288 l 0.118644,-0.2881 3.627125,0 -0.101694,0.5253 q -0.508476,2.4916 -2.474581,4.1017 -1.966106,1.6103 -4.5254332,1.6103 -2.9491586,0 -5.0508577,-2.0848 -2.0847499,-2.1017 -2.0847499,-5.0509 0,-2.9491 2.0847499,-5.0339 2.1016991,-2.1017 5.0508577,-2.1017 2.5423782,0 4.5084842,1.6102 1.983054,1.5933 2.49153,4.1017 l 0.101694,0.5254 -3.627125,0 -0.118644,-0.2881 q -0.186442,-0.5255 -0.525425,-0.9661 -0.322035,-0.4407 -0.762714,-0.7628 -0.440679,-0.3219 -0.966103,-0.4915 -0.525425,-0.1695 -1.1016972,-0.1695 -1.4576303,0 -2.5084798,1.0509 -1.0508495,1.0508 -1.0508495,2.5254 z" />
    <path
       inkscape:connector-curvature="0"
       id="path3387"
       style="font-style:normal;font-variant:normal;font-weight:normal;font-stretch:normal;font-size:20.25623322px;line-height:125%;font-family:'Vertigo Upright 2 BRK';-inkscape-font-specification:'Vertigo Upright 2 BRK, Normal';text-align:start;letter-spacing:1.01281166px;word-spacing:202.31929016px;writing-mode:lr-tb;text-anchor:start;fill:#05376a;fill-opacity:1;stroke:none;stroke-width:1px;stroke-linecap:butt;stroke-linejoin:miter;stroke-opacity:1"
       d="m 31.34296,1030.3546 -4.822961,0 0,4.823 -3.898843,0 0,-4.823 -4.822962,0 0,-3.8731 4.822962,0 0,-4.823 3.898843,0 0,4.823 4.822961,0 z"
       sodipodi:nodetypes="ccccccccccccc" />
    <path
       inkscape:connector-curvature="0"
       id="path3371"
       style="font-style:normal;font-variant:normal;font-weight:normal;font-stretch:normal;font-size:15.65445995px;line-height:125%;font-family:'Vertigo Upright 2 BRK';-inkscape-font-specification:'Vertigo Upright 2 BRK, Normal';text-align:start;letter-spacing:0.78272301px;word-spacing:156.35675049px;writing-mode:lr-tb;text-anchor:start;fill:#05376a;fill-opacity:1;stroke:none;stroke-width:1px;stroke-linecap:butt;stroke-linejoin:miter;stroke-opacity:1"
       d="m 16.273602,1049.948 -13.1810556,0 0,-13.1811 3.3030911,0 0,9.8936 9.8779645,0 0,3.2875 z" />
    <path
       inkscape:connector-curvature="0"
       id="path3373"
       style="font-style:normal;font-variant:normal;font-weight:normal;font-stretch:normal;font-size:15.65445995px;line-height:125%;font-family:'Vertigo Upright 2 BRK';-inkscape-font-specification:'Vertigo Upright 2 BRK, Normal';text-align:start;letter-spacing:0.78272301px;word-spacing:156.35675049px;writing-mode:lr-tb;text-anchor:start;fill:#000000;fill-opacity:1;stroke:none;stroke-width:1px;stroke-linecap:butt;stroke-linejoin:miter;stroke-opacity:1"
       d="m 31.182029,1040.0544 -4.946809,0 0,6.6061 4.946809,0 0,3.2875 -13.181055,0 0,-3.2875 4.946809,0 0,-6.6061 -4.946809,0 0,-3.2875 13.181055,0 0,3.2875 z" />
    <path
       inkscape:connector-curvature="0"
       id="path3375"
       style="font-style:normal;font-variant:normal;font-weight:normal;font-stretch:normal;font-size:15.65445995px;line-height:125%;font-family:'Vertigo Upright 2 BRK';-inkscape-font-specification:'Vertigo Upright 2 BRK, Normal';text-align:start;letter-spacing:0.78272301px;word-spacing:156.35675049px;writing-mode:lr-tb;text-anchor:start;fill:#05376a;fill-opacity:1;stroke:none;stroke-width:1px;stroke-linecap:butt;stroke-linejoin:miter;stroke-opacity:1"
       d="m 46.090456,1040.884 q 0,1.5185 -0.720105,2.4734 0.720105,0.955 0.720105,2.4734 0,1.8003 -1.064503,2.8648 -0.782723,0.7827 -1.972462,1.0802 -0.688796,0.1722 -1.080158,0.1722 l -9.063932,0 0,-13.1811 9.063932,0 q 0.485288,0 1.064504,0.1566 1.205393,0.2974 1.972461,1.0645 1.080158,1.0801 1.080158,2.896 z m -3.287436,0 q 0,-0.4852 -0.344399,-0.6888 -0.219162,-0.1408 -0.485288,-0.1408 l -5.760841,0 0,1.6593 5.760841,0 q 0.391362,0 0.610524,-0.2191 0.219163,-0.2192 0.219163,-0.6106 z m 0,4.9468 q 0,-0.4852 -0.344399,-0.6887 -0.219162,-0.1409 -0.485288,-0.1409 l -5.760841,0 0,1.6593 5.760841,0 q 0.391362,0 0.610524,-0.2191 0.219163,-0.2192 0.219163,-0.6106 z" />
    <path
       sodipodi:nodetypes="ccccccccccccc"
       d="m 46.053306,1030.3546 -4.822961,0 0,4.823 -3.898843,0 0,-4.823 -4.822962,0 0,-3.8731 4.822962,0 0,-4.823 3.898843,0 0,4.823 4.822961,0 z"
       style="font-style:normal;font-variant:normal;font-weight:normal;font-stretch:normal;font-size:20.25623322px;line-height:125%;font-family:'Vertigo Upright 2 BRK';-inkscape-font-specification:'Vertigo Upright 2 BRK, Normal';text-align:start;letter-spacing:1.01281166px;word-spacing:202.31929016px;writing-mode:lr-tb;text-anchor:start;fill:#000000;fill-opacity:1;stroke:none;stroke-width:1px;stroke-linecap:butt;stroke-linejoin:miter;stroke-opacity:1"
       id="path4206"
       inkscape:connector-curvature="0" />
  </g>
</svg>
